<?xml version="1.0" encoding="UTF-8" standalone="no"?>
<!-- Created with Inkscape (http://www.inkscape.org/) -->
<svg xmlns:dc="http://purl.org/dc/elements/1.1/" xmlns:cc="http://creativecommons.org/ns#" xmlns:rdf="http://www.w3.org/1999/02/22-rdf-syntax-ns#" xmlns:svg="http://www.w3.org/2000/svg" xmlns="http://www.w3.org/2000/svg" xmlns:sodipodi="http://sodipodi.sourceforge.net/DTD/sodipodi-0.dtd" xmlns:inkscape="http://www.inkscape.org/namespaces/inkscape" version="1.1" width="437.35715" height="454.67151" id="svg2" inkscape:version="0.91 r" sodipodi:docname="TypesOfData.svg">
  <sodipodi:namedview pagecolor="#ffffff" bordercolor="#666666" borderopacity="1" objecttolerance="10" gridtolerance="10" guidetolerance="10" inkscape:pageopacity="0" inkscape:pageshadow="2" inkscape:window-width="1366" inkscape:window-height="716" id="namedview52" showgrid="false" inkscape:zoom="1.4681122" inkscape:cx="142.42821" inkscape:cy="258.84179" inkscape:window-x="0" inkscape:window-y="0" inkscape:window-maximized="1" inkscape:current-layer="svg2"/>
  <defs id="defs4"/>
  <metadata id="metadata7">
    <rdf:RDF>
      <cc:Work rdf:about="">
        <dc:format>image/svg+xml</dc:format>
        <dc:type rdf:resource="http://purl.org/dc/dcmitype/StillImage"/>
        <dc:title/>
      </cc:Work>
    </rdf:RDF>
  </metadata>
  <g id="g3253" transform="translate(-138.39556,-229.97029)">
    <path inkscape:connector-curvature="0" style="fill:none;stroke:#5a50a0;stroke-width:1px;stroke-linecap:butt;stroke-linejoin:miter;stroke-opacity:1" id="path3223" d="m 357.08892,326.0625 0,247.48738"/>
    <path inkscape:connector-curvature="0" style="fill:none;stroke:#5a50a0;stroke-width:1px;stroke-linecap:butt;stroke-linejoin:miter;stroke-opacity:1" id="path3225" d="m 269.58892,362.30619 175,175"/>
    <path inkscape:connector-curvature="0" style="fill:none;stroke:#5a50a0;stroke-width:1px;stroke-linecap:butt;stroke-linejoin:miter;stroke-opacity:1" id="path3227" d="m 233.34523,449.80619 247.48738,0"/>
    <path inkscape:connector-curvature="0" style="fill:none;stroke:#5a50a0;stroke-width:1px;stroke-linecap:butt;stroke-linejoin:miter;stroke-opacity:1" id="path3229" d="m 269.58892,537.30619 175,-175"/>
  </g>
  <path inkscape:connector-curvature="0" style="fill:#1d193d;fill-opacity:1;stroke:none" id="path3199" d="m 378.70092,102.49838 a 43.499999,43.499999 0 0 1 -87,0 43.499999,43.499999 0 1 1 87,0 z"/>
  <path inkscape:connector-curvature="0" style="fill:#1d193d;fill-opacity:1;stroke:none" id="path3197" d="m 427.35715,218.74659 a 43.499999,43.499999 0 0 1 -87,0 43.499999,43.499999 0 1 1 87,0 z"/>
  <path inkscape:connector-curvature="0" style="fill:#1d193d;fill-opacity:1;stroke:none" id="path3201" d="m 379.50001,334.46087 a 43.499999,43.499999 0 0 1 -87,0 43.499999,43.499999 0 1 1 87,0 z"/>
  <path inkscape:connector-curvature="0" style="fill:#1d193d;fill-opacity:1;stroke:none" id="path3124" d="m 284.9549,217.79772 a 66.203049,65.845907 0 0 1 -132.40609,0 66.203049,65.845907 0 1 1 132.40609,0 z"/>
  <path inkscape:connector-curvature="0" style="fill:#1d193d;fill-opacity:1;stroke:none" id="path3193" d="m 97.000002,218.56801 a 43.499999,43.499999 0 0 1 -86.999999,0 43.499999,43.499999 0 1 1 86.999999,0 z"/>
  <path inkscape:connector-curvature="0" style="fill:#ffffff;stroke:none" id="path3276" d="m 72.85444,190.52971 c -2.62639,3.51281 -6.11136,9.25788 -11.375,11 -5.26364,1.74212 -8.66599,2.4428 -12.875,7.75 -6.14611,7.74971 -2.71896,15.48449 -0.0312,18.15625 0.47201,-0.63098 0.98845,-1.20379 1.53125,-1.65625 l 6.46875,-5.40625 c -1.02761,-4.30073 0.92619,-8.17333 1.625,-11.71875 0.0386,3.32423 -0.54555,6.89452 0.25,10.21875 l 6.65625,-4.9375 c -0.58826,-5.35746 0.99311,-7.50662 1.125,-8.1875 0.15958,-0.82378 -0.40164,3.28721 0.59375,5.875 2.25716,-3.12451 3.23597,-6.51463 5,-9.71875 -0.85078,3.11271 -0.93133,6.31127 -2.5625,9.3125 l -1.03125,1.46875 c 1.6687,0.50189 3.36255,-0.25517 5.03125,-0.40625 -1.86761,0.82144 -3.75739,2.1624 -5.625,2.25 l -7.5625,6.03125 c 2.07506,0.31692 6.20398,0.21094 9.125,0 l -1.6875,0.78125 c -5.0426,1.9191 -6.87305,1.25215 -9.5625,1.15625 l -6.125,5.5625 c -0.34224,0.4399 -0.69061,0.8734 -1.03125,1.3125 0.10465,0.0939 0.20326,0.17757 0.34375,0.28125 2.1643,1.59733 3.2731,3.02882 10.09375,3.75 6.82065,0.72118 14.67931,-9.37464 16.375,-14.875 1.69569,-5.50036 0.25,-16.5 0.25,-16.5 -0.57109,-4.27401 -2.65592,-8.71478 -5,-11.5 z m -22.0625,38.84375 c -0.48022,-0.43098 -0.70438,-0.79856 -1.5625,-1.34375 -0.21109,-0.15029 -0.42833,-0.36715 -0.65625,-0.59375 0.005,0.005 -0.005,0.0261 0,0.0312 -1.74163,2.32964 -2.98626,5.46372 -3.5625,6.625 -0.73339,1.47799 -1.03125,4.40625 -1.03125,4.40625 l -3.46875,-4.78125 -0.6875,1.0625 c -1.47496,-2.36617 -3.01411,-4.43758 -3.90625,-5.1875 l -4.875,-4.09375 c 2.66727,1.0274 6.29162,3.75777 8,6.125 l 1.46875,2.0625 0.34375,-0.53125 0,-4.375 c 0,-2.93425 -3.10396,-8.2795 -10.40625,-8.1875 l -8.21875,0.0937 c 3.36053,5.22423 4.66577,11.67845 7.875,14.9375 3.20924,3.25905 7.35454,2.5623 9.375,-0.21875 l 0.34375,-0.59375 c 1.70134,2.72935 3.28558,5.838 3.625,7.75 0,0 -0.21175,0.30705 -0.125,4.375 0.0867,4.06794 0.64579,5.1522 3.375,4.96875 -0.74376,-5.33937 -0.67505,-10.66022 0.4375,-15.78125 0.5555,-2.55696 2.05195,-4.67829 3.65625,-6.75 z"/>
  <path inkscape:connector-curvature="0" style="fill:#1d193d;fill-opacity:1;stroke:none" id="path3195" d="m 145.21429,334.10373 a 43.499999,43.499999 0 0 1 -86.999997,0 43.499999,43.499999 0 1 1 86.999997,0 z"/>
  <path inkscape:connector-curvature="0" style="fill:#1d193d;fill-opacity:1;stroke:none" id="path3187" d="m 262.15573,384.06889 a 43.499999,43.499999 0 0 1 -87,0 43.499999,43.499999 0 1 1 87,0 z"/>
  <path inkscape:connector-curvature="0" style="fill:#ffffff;fill-opacity:1;stroke:none" id="path3146" d="m 218.65573,350.86577 c -18.34374,0 -33.21875,14.87501 -33.21875,33.21875 0,18.34374 14.87501,33.1875 33.21875,33.1875 18.34374,0 33.21875,-14.84376 33.21875,-33.1875 0,-18.34374 -14.87501,-33.21875 -33.21875,-33.21875 z m -0.5625,5.5625 0,28.1875 19.53125,19.34375 c -4.91718,4.6068 -11.54281,7.4375 -18.8125,7.4375 -15.18783,0 -27.5,-12.31217 -27.5,-27.5 0,-14.94513 11.92893,-27.08392 26.78125,-27.46875 z"/>
  <path inkscape:connector-curvature="0" style="fill:#1d193d;fill-opacity:1;stroke:none" id="path3046" d="m 262.94819,53.499995 a 43.499999,43.499999 0 0 1 -87,0 43.499999,43.499999 0 1 1 87,0 z"/>
  <path inkscape:connector-curvature="0" style="fill:#ffffff;fill-opacity:1;stroke:none" id="path3043" d="m 219.44819,26.06096 c -9.52933,0 -17.25,7.72067 -17.25,17.25 0,3.79908 1.29897,7.11585 2.9375,10.21875 l 14.3125,29.9375 14.5625,-30.0625 c 1.44912,-2.85037 2.6875,-6.29467 2.6875,-10.09375 0,-9.52933 -7.72067,-17.25 -17.25,-17.25 z m 0,7.90625 c 5.1605,0 9.34375,4.18325 9.34375,9.34375 0,5.1605 -4.18325,9.34375 -9.34375,9.34375 -5.1605,0 -9.34375,-4.18325 -9.34375,-9.34375 0,-5.1605 4.18325,-9.34375 9.34375,-9.34375 z"/>
  <path inkscape:connector-curvature="0" style="fill:#1d193d;fill-opacity:1;stroke:none" id="path3118" d="m 145.01288,102.99746 a 43.499999,43.499999 0 0 1 -86.999997,0 43.499999,43.499999 0 1 1 86.999997,0 z"/>
  <g id="g3120" transform="translate(-137.67055,-229.97029)">
    <path inkscape:connector-curvature="0" style="fill:#ffffff;fill-opacity:1;stroke:none" id="rect3068" d="m 255.09375,313.5 c -7.95495,0.0998 -15.6804,2.53524 -15.8125,7.375 -0.26098,9.56175 -0.46837,19.12457 -0.625,28.6875 l 2.125,0 c -5.2e-4,0.0423 0,0.0825 0,0.125 0,3.06841 1.35757,5.53125 3.03125,5.53125 1.67368,0 3.03125,-2.46284 3.03125,-5.53125 0,-0.0425 5.2e-4,-0.0827 0,-0.125 l 16.5625,0 c -5.2e-4,0.0423 0,0.0825 0,0.125 0,3.06841 1.35757,5.53125 3.03125,5.53125 1.67368,0 3.03125,-2.46284 3.03125,-5.53125 0,-0.0425 5.2e-4,-0.0827 0,-0.125 l 2.25,0 c 0.0607,-9.83939 0.0476,-19.62312 -0.625,-29.4375 -0.30652,-4.4725 -8.04505,-6.72475 -16,-6.625 z m -7.71875,4.03125 15.65625,0 0,2.15625 -15.65625,0 0,-2.15625 z m -5.03125,3.21875 26.21875,0 0.625,13.125 -27.375,0 0.53125,-13.125 z m 1.46875,18.8125 c 1.04605,0 1.90625,0.8602 1.90625,1.90625 0,1.04605 -0.8602,1.90625 -1.90625,1.90625 -1.04605,0 -1.875,-0.8602 -1.875,-1.90625 0,-1.04605 0.82895,-1.90625 1.875,-1.90625 z m 22.53125,0 c 1.04605,0 1.875,0.8602 1.875,1.90625 0,1.04605 -0.82895,1.90625 -1.875,1.90625 -1.04605,0 -1.90625,-0.8602 -1.90625,-1.90625 0,-1.04605 0.8602,-1.90625 1.90625,-1.90625 z"/>
    <path inkscape:connector-curvature="0" style="fill:#ffffff;fill-opacity:1;stroke:none" id="rect3092" d="m 218.6875,325.5625 0,2.96875 -5.8125,0 c -2.17973,5.60396 -3.734,10.09774 -6.25,10.6875 l 0,10.34375 2.5,0 c 0.12912,2.74537 1.21971,4.90625 2.5625,4.90625 1.34279,0 2.43338,-2.16088 2.5625,-4.90625 l 16,0 c 0.12912,2.74537 1.21971,4.90625 2.5625,4.90625 1.34279,0 2.43338,-2.16088 2.5625,-4.90625 l 2.34375,0 0,-10.34375 c -2.46149,-1.46623 -4.28148,-4.81752 -6.40625,-10.6875 l -5.40625,0 0,-2.96875 -7.21875,0 z m -4.40625,5.5 15.53125,0 1.90625,6.5 -19.21875,0 1.78125,-6.5 z m -2.65625,9.03125 c 1.04605,0 1.90625,0.82895 1.90625,1.875 0,1.04605 -0.8602,1.90625 -1.90625,1.90625 -1.04605,0 -1.90625,-0.8602 -1.90625,-1.90625 0,-1.04605 0.8602,-1.875 1.90625,-1.875 z m 21,0 c 1.04605,0 1.875,0.82895 1.875,1.875 0,1.04605 -0.82895,1.90625 -1.875,1.90625 -1.04605,0 -1.90625,-0.8602 -1.90625,-1.90625 0,-1.04605 0.8602,-1.875 1.90625,-1.875 z"/>
  </g>
  <path inkscape:connector-curvature="0" style="font-style:normal;font-variant:normal;font-weight:bold;font-stretch:normal;font-size:82.62076569px;line-height:125%;font-family:'Droid Sans';-inkscape-font-specification:'Droid Sans Bold';letter-spacing:0px;word-spacing:0px;fill:#ffffff;fill-opacity:1;stroke:none" id="path4113" d="m 210.81224,232.72513 0,-2.89074 c -1e-5,-1.32815 0.13886,-2.52612 0.41662,-3.59389 0.30551,-1.09376 0.74991,-2.12245 1.33319,-3.08606 0.61103,-0.98959 1.38873,-1.94015 2.33308,-2.85168 0.94432,-0.9375 2.08308,-1.90108 3.41629,-2.89074 1.16652,-0.85937 2.15253,-1.62763 2.95801,-2.30478 0.80544,-0.67706 1.45815,-1.34116 1.95812,-1.99226 0.49992,-0.67707 0.86099,-1.38022 1.08321,-2.10945 0.22218,-0.72917 0.33328,-1.57554 0.3333,-2.53918 -2e-5,-1.48438 -0.54163,-2.70839 -1.62482,-3.67201 -1.05547,-0.96354 -2.68028,-1.44532 -4.87447,-1.44537 -1.91647,5e-5 -3.98568,0.37766 -6.20765,1.13285 -2.19422,0.75529 -4.47174,1.6798 -6.83259,2.77356 l -4.24953,-8.63316 c 1.19431,-0.65102 2.48583,-1.26302 3.87457,-1.83601 1.41651,-0.59893 2.87468,-1.11978 4.37452,-1.56256 1.5276,-0.46872 3.0691,-0.83332 4.6245,-1.0938 1.55536,-0.26037 3.08298,-0.39058 4.58283,-0.39064 2.83301,6e-5 5.38827,0.32559 7.66583,0.9766 2.27749,0.62508 4.20784,1.5496 5.79103,2.77354 1.58313,1.22407 2.79132,2.7085 3.6246,4.45331 0.86098,1.74491 1.29149,3.73717 1.29153,5.9768 -4e-5,1.64073 -0.19446,3.11214 -0.58327,4.41424 -0.38888,1.27613 -0.97215,2.47409 -1.7498,3.59389 -0.74996,1.09383 -1.70818,2.16158 -2.87469,3.20326 -1.1388,1.0157 -2.47199,2.09646 -3.99956,3.24231 -1.16657,0.85943 -2.1248,1.61467 -2.87469,2.26571 -0.72217,0.62506 -1.29155,1.22403 -1.70815,1.79695 -0.41664,0.57296 -0.70828,1.17195 -0.87491,1.79695 -0.13889,0.59901 -0.20833,1.31518 -0.20831,2.14852 l 0,2.34384 -10.99879,0"/>
  <svg:switch style="font-style:normal;font-weight:normal;font-size:16px;line-height:125%;font-family:Sans;letter-spacing:0px;word-spacing:0px;fill:#1d193d;fill-opacity:1;stroke:none"><svg:text sodipodi:linespacing="125%" style="font-style:normal;font-weight:normal;font-size:16px;line-height:125%;font-family:Sans;letter-spacing:0px;word-spacing:0px;fill:#1d193d;fill-opacity:1;stroke:none" xml:space="preserve" id="text3130-bs" y="163.46333" x="71.680847" systemLanguage="bs"><svg:tspan style="font-style:normal;font-variant:normal;font-weight:normal;font-stretch:normal;font-size:14px;font-family:'Liberation Sans';-inkscape-font-specification:'Liberation Sans';fill:#1d193d;fill-opacity:1" id="tspan3132-bs" y="163.46333" x="71.680847">Prevozni</svg:tspan></svg:text><svg:text sodipodi:linespacing="125%" style="font-style:normal;font-weight:normal;font-size:16px;line-height:125%;font-family:Sans;letter-spacing:0px;word-spacing:0px;fill:#1d193d;fill-opacity:1;stroke:none" xml:space="preserve" id="text3130-es" y="163.46333" x="71.680847" systemLanguage="es"><svg:tspan style="font-style:normal;font-variant:normal;font-weight:normal;font-stretch:normal;font-size:14px;font-family:'Liberation Sans';-inkscape-font-specification:'Liberation Sans';fill:#1d193d;fill-opacity:1" id="tspan3132-es" y="163.46333" x="71.680847">Transporte</svg:tspan></svg:text><svg:text sodipodi:linespacing="125%" style="font-style:normal;font-weight:normal;font-size:16px;line-height:125%;font-family:Sans;letter-spacing:0px;word-spacing:0px;fill:#1d193d;fill-opacity:1;stroke:none" xml:space="preserve" id="text3130" y="163.46333" x="71.680847"><svg:tspan style="font-style:normal;font-variant:normal;font-weight:normal;font-stretch:normal;font-size:14px;font-family:'Liberation Sans';-inkscape-font-specification:'Liberation Sans';fill:#1d193d;fill-opacity:1" id="tspan3132" y="163.46333" x="71.680847">Transport</svg:tspan></svg:text></svg:switch>
  <svg:switch style="font-style:normal;font-weight:normal;font-size:16px;line-height:125%;font-family:Sans;letter-spacing:0px;word-spacing:0px;fill:#1d193d;fill-opacity:1;stroke:none"><svg:text sodipodi:linespacing="125%" style="font-style:normal;font-weight:normal;font-size:16px;line-height:125%;font-family:Sans;letter-spacing:0px;word-spacing:0px;fill:#1d193d;fill-opacity:1;stroke:none" xml:space="preserve" id="text3134-bs" y="114.17763" x="219.56783" systemLanguage="bs"><svg:tspan style="font-style:normal;font-variant:normal;font-weight:normal;font-stretch:normal;font-size:14px;font-family:'Liberation Sans';-inkscape-font-specification:'Liberation Sans';text-align:center;text-anchor:middle;fill:#1d193d;fill-opacity:1" id="tspan3138-bs" y="114.17763" x="219.56783">Geografski</svg:tspan></svg:text><svg:text sodipodi:linespacing="125%" style="font-style:normal;font-weight:normal;font-size:16px;line-height:125%;font-family:Sans;letter-spacing:0px;word-spacing:0px;fill:#1d193d;fill-opacity:1;stroke:none" xml:space="preserve" id="text3134-es" y="114.17763" x="219.56783" systemLanguage="es"><svg:tspan style="font-style:normal;font-variant:normal;font-weight:normal;font-stretch:normal;font-size:14px;font-family:'Liberation Sans';-inkscape-font-specification:'Liberation Sans';text-align:center;text-anchor:middle;fill:#1d193d;fill-opacity:1" id="tspan3138-es" y="114.17763" x="219.56783">Geográficos</svg:tspan></svg:text><svg:text sodipodi:linespacing="125%" style="font-style:normal;font-weight:normal;font-size:16px;line-height:125%;font-family:Sans;letter-spacing:0px;word-spacing:0px;fill:#1d193d;fill-opacity:1;stroke:none" xml:space="preserve" id="text3134" y="114.17763" x="219.56783"><svg:tspan style="font-style:normal;font-variant:normal;font-weight:normal;font-stretch:normal;font-size:14px;font-family:'Liberation Sans';-inkscape-font-specification:'Liberation Sans';text-align:center;text-anchor:middle;fill:#1d193d;fill-opacity:1" id="tspan3138" y="114.17763" x="219.56783">Geographical</svg:tspan></svg:text></svg:switch>
  <svg:switch style="font-style:normal;font-weight:normal;font-size:16px;line-height:125%;font-family:Sans;letter-spacing:0px;word-spacing:0px;fill:#1d193d;fill-opacity:1;stroke:none"><svg:text sodipodi:linespacing="125%" style="font-style:normal;font-weight:normal;font-size:16px;line-height:125%;font-family:Sans;letter-spacing:0px;word-spacing:0px;fill:#1d193d;fill-opacity:1;stroke:none" xml:space="preserve" id="text3140-bs" y="303.8205" x="175.39493" systemLanguage="bs"><svg:tspan style="font-style:normal;font-variant:normal;font-weight:normal;font-stretch:normal;font-size:14px;font-family:'Liberation Sans';-inkscape-font-specification:'Liberation Sans';fill:#1d193d;fill-opacity:1" id="tspan3142-bs" y="303.8205" x="175.39493">Tipovi podataka</svg:tspan></svg:text><svg:text sodipodi:linespacing="125%" style="font-style:normal;font-weight:normal;font-size:16px;line-height:125%;font-family:Sans;letter-spacing:0px;word-spacing:0px;fill:#1d193d;fill-opacity:1;stroke:none" xml:space="preserve" id="text3140-es" y="303.8205" x="175.39493" systemLanguage="es"><svg:tspan style="font-style:normal;font-variant:normal;font-weight:normal;font-stretch:normal;font-size:14px;font-family:'Liberation Sans';-inkscape-font-specification:'Liberation Sans';fill:#1d193d;fill-opacity:1" id="tspan3142-es" y="303.8205" x="175.39493">Tipos de datos</svg:tspan></svg:text><svg:text sodipodi:linespacing="125%" style="font-style:normal;font-weight:normal;font-size:16px;line-height:125%;font-family:Sans;letter-spacing:0px;word-spacing:0px;fill:#1d193d;fill-opacity:1;stroke:none" xml:space="preserve" id="text3140" y="303.8205" x="175.39493"><svg:tspan style="font-style:normal;font-variant:normal;font-weight:normal;font-stretch:normal;font-size:14px;font-family:'Liberation Sans';-inkscape-font-specification:'Liberation Sans';fill:#1d193d;fill-opacity:1" id="tspan3142" y="303.8205" x="175.39493">Types of Data</svg:tspan></svg:text></svg:switch>
  <svg:switch style="font-style:normal;font-weight:normal;font-size:16px;line-height:125%;font-family:Sans;letter-spacing:0px;word-spacing:0px;fill:#1d193d;fill-opacity:1;stroke:none"><svg:text sodipodi:linespacing="125%" style="font-style:normal;font-weight:normal;font-size:16px;line-height:125%;font-family:Sans;letter-spacing:0px;word-spacing:0px;fill:#1d193d;fill-opacity:1;stroke:none" xml:space="preserve" id="text3189-bs" y="444.53479" x="188.84079" systemLanguage="bs"><svg:tspan style="font-style:normal;font-variant:normal;font-weight:normal;font-stretch:normal;font-size:14px;font-family:'Liberation Sans';-inkscape-font-specification:'Liberation Sans';fill:#1d193d;fill-opacity:1" id="tspan3191-bs" y="444.53479" x="188.84079">Statistički</svg:tspan></svg:text><svg:text sodipodi:linespacing="125%" style="font-style:normal;font-weight:normal;font-size:16px;line-height:125%;font-family:Sans;letter-spacing:0px;word-spacing:0px;fill:#1d193d;fill-opacity:1;stroke:none" xml:space="preserve" id="text3189-es" y="444.53479" x="188.84079" systemLanguage="es"><svg:tspan style="font-style:normal;font-variant:normal;font-weight:normal;font-stretch:normal;font-size:14px;font-family:'Liberation Sans';-inkscape-font-specification:'Liberation Sans';fill:#1d193d;fill-opacity:1" id="tspan3191-es" y="444.53479" x="188.84079">Estadísticos</svg:tspan></svg:text><svg:text sodipodi:linespacing="125%" style="font-style:normal;font-weight:normal;font-size:16px;line-height:125%;font-family:Sans;letter-spacing:0px;word-spacing:0px;fill:#1d193d;fill-opacity:1;stroke:none" xml:space="preserve" id="text3189" y="444.53479" x="188.84079"><svg:tspan style="font-style:normal;font-variant:normal;font-weight:normal;font-stretch:normal;font-size:14px;font-family:'Liberation Sans';-inkscape-font-specification:'Liberation Sans';fill:#1d193d;fill-opacity:1" id="tspan3191" y="444.53479" x="188.84079">Statistical</svg:tspan></svg:text></svg:switch>
  <svg:switch style="font-style:normal;font-weight:normal;font-size:16px;line-height:125%;font-family:Sans;letter-spacing:0px;word-spacing:0px;fill:#1d193d;fill-opacity:1;stroke:none"><svg:text sodipodi:linespacing="125%" style="font-style:normal;font-weight:normal;font-size:16px;line-height:125%;font-family:Sans;letter-spacing:0px;word-spacing:0px;fill:#1d193d;fill-opacity:1;stroke:none" xml:space="preserve" id="text3203-bs" y="394.17767" x="63.836361" systemLanguage="bs"><svg:tspan style="font-style:normal;font-variant:normal;font-weight:normal;font-stretch:normal;font-size:14px;font-family:'Liberation Sans';-inkscape-font-specification:'Liberation Sans';fill:#1d193d;fill-opacity:1" id="tspan3205-bs" y="394.17767" x="56">Meteorološki</svg:tspan></svg:text><svg:text sodipodi:linespacing="125%" style="font-style:normal;font-weight:normal;font-size:16px;line-height:125%;font-family:Sans;letter-spacing:0px;word-spacing:0px;fill:#1d193d;fill-opacity:1;stroke:none" xml:space="preserve" id="text3203-es" y="394.17767" x="63.836361" systemLanguage="es"><svg:tspan style="font-style:normal;font-variant:normal;font-weight:normal;font-stretch:normal;font-size:14px;font-family:'Liberation Sans';-inkscape-font-specification:'Liberation Sans';fill:#1d193d;fill-opacity:1" id="tspan3205-es" y="394.17767" x="56">Meteorológicos</svg:tspan></svg:text><svg:text sodipodi:linespacing="125%" style="font-style:normal;font-weight:normal;font-size:16px;line-height:125%;font-family:Sans;letter-spacing:0px;word-spacing:0px;fill:#1d193d;fill-opacity:1;stroke:none" xml:space="preserve" id="text3203" y="394.17767" x="63.836361"><svg:tspan style="font-style:normal;font-variant:normal;font-weight:normal;font-stretch:normal;font-size:14px;font-family:'Liberation Sans';-inkscape-font-specification:'Liberation Sans';fill:#1d193d;fill-opacity:1" id="tspan3205" y="394.17767" x="56">Meteorological</svg:tspan></svg:text></svg:switch>
  <svg:switch style="font-style:normal;font-weight:normal;font-size:16px;line-height:125%;font-family:Sans;letter-spacing:0px;word-spacing:0px;fill:#1d193d;fill-opacity:1;stroke:none"><svg:text sodipodi:linespacing="125%" style="font-style:normal;font-weight:normal;font-size:16px;line-height:125%;font-family:Sans;letter-spacing:0px;word-spacing:0px;fill:#1d193d;fill-opacity:1;stroke:none" xml:space="preserve" id="text3207-bs" y="279.89191" x="355.6965" systemLanguage="bs"><svg:tspan style="font-style:normal;font-variant:normal;font-weight:normal;font-stretch:normal;font-size:14px;font-family:'Liberation Sans';-inkscape-font-specification:'Liberation Sans';fill:#1d193d;fill-opacity:1" id="tspan3209-bs" y="279.89191" x="355.6965">Naučni</svg:tspan></svg:text><svg:text sodipodi:linespacing="125%" style="font-style:normal;font-weight:normal;font-size:16px;line-height:125%;font-family:Sans;letter-spacing:0px;word-spacing:0px;fill:#1d193d;fill-opacity:1;stroke:none" xml:space="preserve" id="text3207-es" y="279.89191" x="355.6965" systemLanguage="es"><svg:tspan style="font-style:normal;font-variant:normal;font-weight:normal;font-stretch:normal;font-size:14px;font-family:'Liberation Sans';-inkscape-font-specification:'Liberation Sans';fill:#1d193d;fill-opacity:1" id="tspan3209-es" y="279.89191" x="355.6965">Científicos</svg:tspan></svg:text><svg:text sodipodi:linespacing="125%" style="font-style:normal;font-weight:normal;font-size:16px;line-height:125%;font-family:Sans;letter-spacing:0px;word-spacing:0px;fill:#1d193d;fill-opacity:1;stroke:none" xml:space="preserve" id="text3207" y="279.89191" x="355.6965"><svg:tspan style="font-style:normal;font-variant:normal;font-weight:normal;font-stretch:normal;font-size:14px;font-family:'Liberation Sans';-inkscape-font-specification:'Liberation Sans';fill:#1d193d;fill-opacity:1" id="tspan3209" y="279.89191" x="355.6965">Scientific</svg:tspan></svg:text></svg:switch>
  <svg:switch style="font-style:normal;font-weight:normal;font-size:16px;line-height:125%;font-family:Sans;letter-spacing:0px;word-spacing:0px;fill:#1d193d;fill-opacity:1;stroke:none"><svg:text sodipodi:linespacing="125%" style="font-style:normal;font-weight:normal;font-size:16px;line-height:125%;font-family:Sans;letter-spacing:0px;word-spacing:0px;fill:#1d193d;fill-opacity:1;stroke:none" xml:space="preserve" id="text3211-bs" y="394.53479" x="307.85645" systemLanguage="bs"><svg:tspan style="font-style:normal;font-variant:normal;font-weight:normal;font-stretch:normal;font-size:14px;font-family:'Liberation Sans';-inkscape-font-specification:'Liberation Sans';fill:#1d193d;fill-opacity:1" id="tspan3213-bs" y="394.53479" x="307.85645">Finansijski</svg:tspan></svg:text><svg:text sodipodi:linespacing="125%" style="font-style:normal;font-weight:normal;font-size:16px;line-height:125%;font-family:Sans;letter-spacing:0px;word-spacing:0px;fill:#1d193d;fill-opacity:1;stroke:none" xml:space="preserve" id="text3211-es" y="394.53479" x="307.85645" systemLanguage="es"><svg:tspan style="font-style:normal;font-variant:normal;font-weight:normal;font-stretch:normal;font-size:14px;font-family:'Liberation Sans';-inkscape-font-specification:'Liberation Sans';fill:#1d193d;fill-opacity:1" id="tspan3213-es" y="394.53479" x="307.85645">Financieros</svg:tspan></svg:text><svg:text sodipodi:linespacing="125%" style="font-style:normal;font-weight:normal;font-size:16px;line-height:125%;font-family:Sans;letter-spacing:0px;word-spacing:0px;fill:#1d193d;fill-opacity:1;stroke:none" xml:space="preserve" id="text3211" y="394.53479" x="307.85645"><svg:tspan style="font-style:normal;font-variant:normal;font-weight:normal;font-stretch:normal;font-size:14px;font-family:'Liberation Sans';-inkscape-font-specification:'Liberation Sans';fill:#1d193d;fill-opacity:1" id="tspan3213" y="394.53479" x="307.85645">Financial</svg:tspan></svg:text></svg:switch>
  <svg:switch style="font-style:normal;font-weight:normal;font-size:16px;line-height:125%;font-family:Sans;letter-spacing:0px;word-spacing:0px;fill:#1d193d;fill-opacity:1;stroke:none"><svg:text sodipodi:linespacing="125%" style="font-style:normal;font-weight:normal;font-size:16px;line-height:125%;font-family:Sans;letter-spacing:0px;word-spacing:0px;fill:#1d193d;fill-opacity:1;stroke:none" xml:space="preserve" id="text3215-bs" y="279.89194" x="30.811525" systemLanguage="bs"><svg:tspan style="font-style:normal;font-variant:normal;font-weight:normal;font-stretch:normal;font-size:14px;font-family:'Liberation Sans';-inkscape-font-specification:'Liberation Sans';fill:#1d193d;fill-opacity:1" id="tspan3217-bs" y="279.89194" x="30.811525">Prirodni</svg:tspan></svg:text><svg:text sodipodi:linespacing="125%" style="font-style:normal;font-weight:normal;font-size:16px;line-height:125%;font-family:Sans;letter-spacing:0px;word-spacing:0px;fill:#1d193d;fill-opacity:1;stroke:none" xml:space="preserve" id="text3215-es" y="279.89194" x="30.811525" systemLanguage="es"><svg:tspan style="font-style:normal;font-variant:normal;font-weight:normal;font-stretch:normal;font-size:14px;font-family:'Liberation Sans';-inkscape-font-specification:'Liberation Sans';fill:#1d193d;fill-opacity:1" id="tspan3217-es" y="279.89194" x="30.811525">Naturales</svg:tspan></svg:text><svg:text sodipodi:linespacing="125%" style="font-style:normal;font-weight:normal;font-size:16px;line-height:125%;font-family:Sans;letter-spacing:0px;word-spacing:0px;fill:#1d193d;fill-opacity:1;stroke:none" xml:space="preserve" id="text3215" y="279.89194" x="30.811525"><svg:tspan style="font-style:normal;font-variant:normal;font-weight:normal;font-stretch:normal;font-size:14px;font-family:'Liberation Sans';-inkscape-font-specification:'Liberation Sans';fill:#1d193d;fill-opacity:1" id="tspan3217" y="279.89194" x="30.811525">Natural</svg:tspan></svg:text></svg:switch>
  <svg:switch style="font-style:normal;font-weight:normal;font-size:16px;line-height:125%;font-family:Sans;letter-spacing:0px;word-spacing:0px;fill:#1d193d;fill-opacity:1;stroke:none"><svg:text sodipodi:linespacing="125%" style="font-style:normal;font-weight:normal;font-size:16px;line-height:125%;font-family:Sans;letter-spacing:0px;word-spacing:0px;fill:#1d193d;fill-opacity:1;stroke:none" xml:space="preserve" id="text3219-bs" y="163.10622" x="335.31714" systemLanguage="bs"><svg:tspan style="font-style:normal;font-variant:normal;font-weight:normal;font-stretch:normal;font-size:14px;font-family:'Liberation Sans';-inkscape-font-specification:'Liberation Sans';text-align:center;text-anchor:middle;fill:#1d193d;fill-opacity:1" id="tspan3221-bs" y="163.10622" x="335.31714">Kulturalni</svg:tspan></svg:text><svg:text sodipodi:linespacing="125%" style="font-style:normal;font-weight:normal;font-size:16px;line-height:125%;font-family:Sans;letter-spacing:0px;word-spacing:0px;fill:#1d193d;fill-opacity:1;stroke:none" xml:space="preserve" id="text3219-es" y="163.10622" x="335.31714" systemLanguage="es"><svg:tspan style="font-style:normal;font-variant:normal;font-weight:normal;font-stretch:normal;font-size:14px;font-family:'Liberation Sans';-inkscape-font-specification:'Liberation Sans';text-align:center;text-anchor:middle;fill:#1d193d;fill-opacity:1" id="tspan3221-es" y="163.10622" x="335.31714">Culturales</svg:tspan></svg:text><svg:text sodipodi:linespacing="125%" style="font-style:normal;font-weight:normal;font-size:16px;line-height:125%;font-family:Sans;letter-spacing:0px;word-spacing:0px;fill:#1d193d;fill-opacity:1;stroke:none" xml:space="preserve" id="text3219" y="163.10622" x="335.31714"><svg:tspan style="font-style:normal;font-variant:normal;font-weight:normal;font-stretch:normal;font-size:14px;font-family:'Liberation Sans';-inkscape-font-specification:'Liberation Sans';text-align:center;text-anchor:middle;fill:#1d193d;fill-opacity:1" id="tspan3221" y="163.10622" x="335.31714">Cultural</svg:tspan></svg:text></svg:switch>
  <path inkscape:connector-curvature="0" style="fill:#ffffff;fill-opacity:1;stroke:none" id="path3325" d="m 103.10444,303.40471 c -8.13615,0 -14.73451,6.48305 -14.96875,14.5625 -4.37363,0.53075 -7.83864,3.88704 -8.59375,8.1875 -0.57695,-0.16404 -1.18296,-0.25 -1.8125,-0.25 -3.65889,0 -6.625,2.96611 -6.625,6.625 0,3.65889 2.96611,6.625 6.625,6.625 0.0412,0 0.0839,7.5e-4 0.125,0 l 43.25,0 c 0.084,0.002 0.16564,0 0.25,0 6.76549,0 12.25,-5.48451 12.25,-12.25 0,-6.76549 -5.48451,-12.25 -12.25,-12.25 -1.25799,0 -2.48261,0.17902 -3.625,0.53125 -1.47245,-6.73832 -7.44499,-11.78125 -14.625,-11.78125 z"/>
  <path inkscape:connector-curvature="0" style="fill:#ffffff;fill-opacity:1;stroke:none" id="rect4104" d="m 97.35444,340.64189 13.14905,-0.0884 -5.89783,6.20032 6.28782,0 -22.53213,20.3738 9.41766,-16.64978 -9.7504,0 z"/>
  <path inkscape:connector-curvature="0" style="fill:#ffffff;fill-opacity:1;stroke:none" id="path4115" d="m 223.35444,245.64189 a 6.5,6.5 0 0 1 -13,0 6.5,6.5 0 1 1 13,0 z"/>
  <svg:switch style="font-style:normal;font-variant:normal;font-weight:bold;font-stretch:normal;font-size:62.99202728px;line-height:125%;font-family:'DejaVu Sans';-inkscape-font-specification:'DejaVu Sans Bold';letter-spacing:0px;word-spacing:0px;fill:#ffffff;fill-opacity:1;stroke:none"><svg:text sodipodi:linespacing="125%" style="font-style:normal;font-variant:normal;font-weight:bold;font-stretch:normal;font-size:62.99202728px;line-height:125%;font-family:'DejaVu Sans';-inkscape-font-specification:'DejaVu Sans Bold';letter-spacing:0px;word-spacing:0px;fill:#ffffff;fill-opacity:1;stroke:none" xml:space="preserve" id="text4117-es" transform="scale(0.96796135,1.0330991)" y="343.04572" x="324.88339" systemLanguage="es"><svg:tspan style="font-style:normal;font-variant:normal;font-weight:bold;font-stretch:normal;font-family:'DejaVu Sans';-inkscape-font-specification:'DejaVu Sans Bold';fill:#ffffff" id="tspan4119-es" y="343.04572" x="324.88339">$</svg:tspan></svg:text><svg:text sodipodi:linespacing="125%" style="font-style:normal;font-variant:normal;font-weight:bold;font-stretch:normal;font-size:62.99202728px;line-height:125%;font-family:'DejaVu Sans';-inkscape-font-specification:'DejaVu Sans Bold';letter-spacing:0px;word-spacing:0px;fill:#ffffff;fill-opacity:1;stroke:none" xml:space="preserve" id="text4117" transform="scale(0.96796135,1.0330991)" y="343.04572" x="324.88339"><svg:tspan style="font-style:normal;font-variant:normal;font-weight:bold;font-stretch:normal;font-family:'DejaVu Sans';-inkscape-font-specification:'DejaVu Sans Bold';fill:#ffffff" id="tspan4119" y="343.04572" x="324.88339">$</svg:tspan></svg:text></svg:switch>
  <path inkscape:connector-curvature="0" style="fill:#ffffff;stroke:none" id="path4147" d="m 370.54194,185.27971 0,4.25 c 2.40687,5.93695 6.48921,9.66538 10.71875,13.15625 -2.56481,2.16177 -4.97871,4.30566 -6.53125,6.46875 -4.4306,6.17297 -7.61808,15.48978 1.4375,23.5 1.42182,1.25769 2.9963,2.40854 4.59375,3.53125 -5.88894,5.16048 -10.34375,10.0925 -10.34375,14.375 l 0,3.125 5.65625,0 0,-2.0625 c 0,-0.13847 0.0255,-0.27014 0.0312,-0.40625 l 18.34375,0 c 0.006,0.13611 0.0312,0.26778 0.0312,0.40625 l 0,2.0625 5.6875,0 0,-3.125 c 0,-4.27818 -4.46366,-9.22018 -10.34375,-14.375 1.59745,-1.12271 3.17193,-2.27356 4.59375,-3.53125 9.05558,-8.01022 5.83685,-17.32703 1.40625,-23.5 -1.54888,-2.15798 -3.94212,-4.31211 -6.5,-6.46875 4.22649,-3.48886 8.28224,-7.22328 10.6875,-13.15625 l 0,-4.25 -5.78125,0 -0.0625,2.21875 -17.75,0 -0.0937,-2.21875 -5.78125,0 z m 6.09375,3.625 17.3125,0 c -0.29461,1.15845 -0.90725,2.32807 -1.71875,3.46875 l -13.875,0 c -0.81137,-1.1405 -1.42409,-2.31048 -1.71875,-3.46875 z m 2.8125,4.875 11.6875,0 c -1.59556,1.85929 -3.66399,3.70112 -5.84375,5.53125 -2.17867,-1.82905 -4.24773,-3.67309 -5.84375,-5.53125 z m 5.84375,12.21875 c 1.85073,1.56418 3.62436,3.2131 5.21875,5.09375 0.10184,0.12013 0.18318,0.25241 0.28125,0.375 l -11.03125,0 c 0.0981,-0.12259 0.17941,-0.25487 0.28125,-0.375 1.59963,-1.88683 3.39277,-3.52491 5.25,-5.09375 z m -6.53125,6.875 13.0625,0 c 0.69383,1.08919 1.25038,2.24432 1.625,3.4375 l -16.34375,0 c 0.37506,-1.19456 0.96127,-2.34721 1.65625,-3.4375 z m -2,4.84375 17.03125,0 c 0.23438,1.20427 0.31211,2.4085 0.15625,3.625 l -17.3125,0 c -0.15586,-1.2165 -0.10938,-2.42073 0.125,-3.625 z m 0.1875,5.0625 16.6875,0 c -0.32611,1.21265 -0.88716,2.3975 -1.6875,3.53125 l -13.34375,0 c -0.79807,-1.13168 -1.33052,-2.321 -1.65625,-3.53125 z m 2.8125,4.9375 11.03125,0 c -0.45726,0.48484 -0.93415,0.95256 -1.5,1.40625 -1.34725,1.0802 -2.68676,2.17651 -4,3.25 -1.31923,-1.07857 -2.64631,-2.16464 -4,-3.25 -0.56815,-0.45553 -1.07256,-0.91932 -1.53125,-1.40625 z m 5.53125,11.625 c 2.61122,1.82365 4.9889,3.67418 6.6875,5.78125 l -13.40625,0 c 1.69899,-2.10756 4.10683,-3.95719 6.71875,-5.78125 z m -7.71875,7.1875 15.40625,0 c 0.62368,1.02062 1.08252,2.10582 1.3125,3.28125 l -18.03125,0 c 0.22998,-1.17543 0.68882,-2.26063 1.3125,-3.28125 z"/>
  <path inkscape:connector-curvature="0" style="fill:#ffffff;fill-opacity:1;stroke:none" id="rect4168" d="m 330.22944,72.40471 c -1.17317,12.52007 -16.47952,19.18252 -19.62105,20.97503 l 24.2773,27.68122 c 10.71277,-2.2773 16.23315,-9.65284 19.96875,-18.90625 z m 6,2 -0.25,4.25 19.4375,23.3125 -0.0312,0.25 c -3.46125,9.41044 -9.73525,16.58939 -20.14071,19.28125 l 0,1.75 c 8.68872,-2.88239 15.15147,-5.2799 26.73446,-19.59375 z m -25.62105,19.5 -0.004,8.625 24.0625,28.21875 -0.0625,-9.09375 z m 49.30855,13.21875 c -9.98071,11.78032 -17.38764,14.05001 -24.67191,16.625 l 0,1.96875 c 10.14268,-3.41113 17.46545,-6.52415 28.35941,-14.6875 z m -0.33655,7.4205 c -4.39085,2.82551 -10.18406,6.97848 -24.33536,11.61075 l 0,1.46875 c 7.32448,-2.67823 12.98252,-4.77697 26.07811,-11.28125 z m 1.6803,2.5795 c -10.59943,4.88603 -18.73139,8.30001 -26.01566,10.875 l 0,2.75 c 8.04893,-2.06738 15.70154,-4.88107 26.04686,-8.875 z"/>
</svg>
